/* XPM */
static char *_196399ef71c4ef987bfe6fb8c655085zAtDZV7Rc6UZvjFX[] = {
/* columns rows colors chars-per-pixel */
"50 50 118 2 ",
"   c #030405",
".  c #040609",
"X  c #070B0F",
"o  c #090D11",
"O  c #0D1217",
"+  c #0F1419",
"@  c #11161C",
"#  c #13181F",
"$  c #161C23",
"%  c #191F27",
"&  c #192027",
"*  c #1C232B",
"=  c #1F2730",
"-  c #232B35",
";  c #252E38",
":  c #27303B",
">  c #2A333E",
",  c #2C3641",
"<  c #2F3945",
"1  c #303A47",
"2  c #323D4A",
"3  c #35414E",
"4  c #374350",
"5  c #394553",
"6  c #3E4B5A",
"7  c #414E5D",
"8  c #455363",
"9  c #485667",
"0  c #485768",
"q  c #4B5B6C",
"w  c #505F72",
"e  c #516274",
"r  c #556679",
"t  c #57687C",
"y  c #596B7F",
"u  c #FC0000",
"i  c #F13A45",
"p  c #D66274",
"a  c #5C6E83",
"s  c #5F7186",
"d  c #62758B",
"f  c #65788F",
"g  c #677B92",
"h  c #6A7E95",
"j  c #6D829A",
"k  c #71869F",
"l  c #7187A0",
"z  c #748AA3",
"x  c #748AA4",
"c  c #748BA4",
"v  c #758BA4",
"b  c #758BA5",
"n  c #768BA6",
"m  c #758CA5",
"M  c #768CA5",
"N  c #758CA6",
"B  c #768CA6",
"V  c #768CA7",
"C  c #778CA7",
"Z  c #768DA7",
"A  c #778DA7",
"S  c #778EA7",
"D  c #748AA3",
"F  c #778EA8",
"G  c #788EA8",
"H  c #788FA9",
"J  c #798FAA",
"K  c #7990AA",
"L  c #7990AB",
"P  c #7A91AB",
"I  c #7A91AC",
"U  c #7B92AD",
"Y  c #7B93AE",
"T  c #7C93AE",
"R  c #7C94AE",
"E  c #7C94AF",
"W  c #7D94AF",
"Q  c #7C93AF",
"!  c #7D95B0",
"~  c #7E95B1",
"^  c #7E96B1",
"/  c #7E96B2",
"(  c #7D95B1",
")  c #7F98B3",
"_  c #A1859D",
"`  c #A1869D",
"'  c #898DA8",
"]  c #898EA8",
"[  c #8098B4",
"{  c #8099B4",
"}  c #8099B5",
"|  c #8199B5",
" . c #829AB6",
".. c #829BB7",
"X. c #839BB7",
"o. c #839BB8",
"O. c #839CB8",
"+. c #839CB9",
"@. c #849CB9",
"#. c #849DB9",
"$. c #859DBA",
"%. c #859EBB",
"&. c #839CB9",
"*. c #87A0BD",
"=. c #87A0BE",
"-. c #87A1BE",
";. c #87A0BE",
":. c #88A1BE",
">. c #88A1BF",
",. c #88A2BF",
"<. c #88A2C0",
"1. c #89A3C0",
"2. c #89A3C1",
"3. c #8AA4C1",
"4. c #8AA4C2",
"5. c #8BA4C2",
"6. c #8BA5C3",
"7. c #8BA5C3",
/* pixels */
"6.6.6.6.6.6.6.6.6.6.6.6.6.6.6.6.6.6.6.6.6.6.6.6.6.6.6.6.6.6.6.6.6.6.6.6.6.6.6.6.6.6.6.6.6.6.6.6.6.6.",
"6.6.6.6.6.6.6.6.6.6.6.6.6.6.6.6.6.6.6.6.6.6.6.6.6.6.6.6.6.6.6.6.6.6.6.6.6.6.6.6.6.6.6.6.6.6.6.6.6.6.",
"6.6.6.6.6.6.6.6.6.6.6.6.6.6.6.6.6.6.6.6.6.6.6.6.6.6.6.6.6.6.6.6.6.6.6.6.6.6.6.6.6.6.6.6.6.6.6.6.6.6.",
"6.6.6.6.6.6.6.6.6.6.6.6.6.6.6.6.6.6.6.6.6.6.6.6.6.6.6.6.6.6.6.6.6.6.6.6.6.6.6.6.6.6.6.6.6.6.6.6.6.6.",
"6.6.6.6.6.6.6.6.6.6.6.6.6.6.6.6.6.6.6.6.6.6.6.6.6.6.6.6.6.6.6.6.6.6.6.6.7.7.7.7.6.6.6.6.6.6.6.6.6.6.",
"6.6.6.6.6.6.6.6.6.6.6.6.6.6.6.6.6.6.6.6.6.6.6.6.6.6.6.6.6.6.6.6.7.7.6.6.7.7.7.7.6.6.6.6.6.6.6.6.6.6.",
"6.6.6.6.6.6.6.6.6.6.6.6.6.6.6.6.6.6.6.6.6.6.6.6.6.6.6.6.6.6.6.6.7.7.7.7.7.7.7.7.6.6.6.6.6.6.6.6.6.6.",
"6.6.6.6.6.6.6.6.6.6.6.6.6.6.6.6.6.6.6.6.6.6.6.6.6.6.6.6.6.6.6.6.7.7.7.7.7.7.7.7.6.6.6.6.6.6.6.6.6.6.",
"6.6.6.6.6.6.6.6.6.6.6.6.6.6.6.6.6.6.6.6.6.6.6.6.6.6.6.6.6.6.6.6.( 3.3.7.7.7.7.7.6.6.6.6.6.6.6.6.6.6.",
"6.6.6.6.6.6.6.6.6.6.6.6.6.6.6.6.6.6.6.6.6.6.6.6.6.6.6.6.6.6.6.H , J 7.7.7.7.7.7.6.6.6.6.6.6.6.6.6.6.",
"6.6.6.6.6.6.6.6.6.6.6.6.6.6.6.6.6.6.6.6.6.6.6.6.6.6.6.6.6.6.:.d @ l 7.7.7.7.7.7.6.6.6.6.6.6.6.6.6.6.",
"6.6.6.6.6.6.6.6.6.6.6.6.6.6.6.6.6.6.6.6.6.6.6.6.6.6.6.6.6.6.$.e $ h 7.7.7.7.7.7.6.6.6.6.6.6.6.6.6.6.",
"6.6.6.6.6.6.6.6.6.6.6.6.6.6.6.6.6.6.6.6.6.6.6.6.6.6.6.6.6.6.E 4 - 2 [ 7.6.6.6.6.6.6.6.6.6.6.6.6.6.6.",
"6.6.6.6.6.6.6.6.6.6.6.6.6.6.6.6.6.6.6.6.6.6.6.6.6.6.6.6.6.6.Y 2 - O k 7.6.6.6.6.6.6.6.6.6.6.6.6.6.6.",
"6.6.6.6.6.6.6.6.6.6.6.6.6.6.6.6.6.6.6.6.6.6.6.6.6.6.6.6.6.6.v - , $ f <.6.6.6.6.6.6.6.6.6.6.6.6.6.6.",
"6.6.6.6.6.6.6.6.6.6.6.6.6.6.6.6.6.6.6.6.6.6.6.6.6.6.6.6.6.-.a # - $ d 3.6.6.6.6.6.6.6.6.6.6.6.6.6.6.",
"6.6.6.6.6.6.6.6.7.7.7.7.7.7.7.7.6.6.6.6.6.6.6.6.6.6.6.6.6.E 2 $ 7 % s ;.7.7.7.7.7.7.7.7.6.6.6.6.7.7.",
"6.6.6.6.6.6.6.6.7.7.7.7.7.7.7.7.6.6.6.6.6.6.6.6.6.6.6.6.6.k * 2 a - e @.7.7.7.7.7.7.7.7.6.6.6.6.7.7.",
"6.6.6.6.6.6.7.6.7.7.7.7.7.7.7.7.6.6.6.6.6.6.6.6.6.6.6.6...9 & j d - q o.7.7.7.7.7.7.7.7.6.6.6.6.7.7.",
"6.6.6.6.6.6.7.7.7.7.7.7.7.7.7.7.6.6.6.6.6.6.6.6.6.6.6.6.h & 6 H w = 5 / 7.7.7.7.7.7.7.7.6.6.6.6.7.7.",
"6.6.6.6.7.7.7.7.7.7.7.7.7.7.7.7.6.6.6.6.6.6.6.6.6.6.6./ 6 & h O.q $ g 3.7.7.7.7.7.7.6.6.6.6.6.6.7.7.",
"6.6.6.6.7.7.7.7.7.7.7.7.7.7.7.7.6.6.6.6.6.6.6.6.6.6.3.j & w O...9 - V 7.7.7.7.7.7.7.6.6.6.6.6.6.7.7.",
"6.6.6.6.7.7.7.7.7.7.7.7.7.7.7.7.6.6.6.6.6.6.6.6.6.6.) 8 ; l 3.o.q % v 7.7.7.7.7.7.6.6.6.6.6.6.6.7.7.",
"6.6.6.6.7.7.7.7.7.7.7.7.7.7.7.7.6.6.6.6.6.6.6.6.6.3.j : 8 ..6.[ 7 - F 7.7.7.7.7.6.6.6.6.6.6.6.6.7.7.",
"6.6.6.6.6.6.6.6.7.7.7.7.7.7.7.7.7.7.7.7.6.6.6.6.3.k - 4 F 3.7.Y < , J 7.7.7.7.7.6.6.6.6.6.6.6.6.7.7.",
"6.6.6.6.6.6.6.6.7.7.7.7.7.7.7.7.7.7.7.7.6.6.6.3.x 8 , j 3.7.7.j $ $ l 3.7.7.7.7.6.6.6.6.6.6.6.6.7.7.",
"6.6.6.6.6.6.6.6.7.7.7.7.7.7.7.7.7.7.7.7.6.6.6./ 3 : h 3.7.7.<.h = 9 o.6.7.7.7.7.6.6.6.6.6.6.7.6.7.7.",
"6.6.6.6.6.6.6.6.7.7.7.7.7.7.7.7.7.7.7.7.3.3.H a * s 3.7.7.7.3.j O d ;.6.7.7.7.7.6.6.6.6.6.6.7.7.7.7.",
"7.7.7.7.6.6.6.6.7.3.o./ T Y F V o.7.7.7.-.s - o s %.7.7.7.7.;.a O j 6.6.6.6.6.6.6.6.6.6.7.7.7.7.7.7.",
"7.7.7.7.6.6.6.6.6.v q 2 : * * % q F / j a O * a 3.7.7.7.7.7.( 4 * v 6.6.6.6.6.6.6.6.6.6.7.7.7.7.7.7.",
"7.7.7.7.7.7.6.3.a * @ O o = 2 2 2 < 2 O O 5 j 3.7.7.7.7.6.6.V ; ; j ;.6.6.6.6.6.6.6.6.6.7.7.7.7.7.7.",
"7.7.7.7.7.3.3.a   . * 9 f t v g 2 O 7 4 a ( 3.7.7.7.7.7.3./ t & , 2 a ( 7.6.6.6.6.6.6.6.7.7.7.7.7.7.",
"7.7.7.7.7.3.v : o q z u u u u u j & 3 j <.7.7.7.7.7.7.6.l ,   & : + $ 6 z 6.6.6.6.6.6.6.6.6.6.6.7.7.",
"7.7.7.7.7...7 ; a u u u u u u u H ; = g -.7.7.7.7.7.6.z ; $ 4 j z 6 , % 2 N 6.6.6.6.6.6.6.6.6.6.7.7.",
"7.7.7.7.6.l $ , ] u u u u u u u u h ; 8 ) 7.7.7.6.6.Y 3 : g u u u u K r & 9 N 6.6.6.6.6.6.6.6.6.7.7.",
"7.7.7.7.6.j @ , Y u u u u u u u u u 9 & x 7.7.7.6.-.a % a u u u u u u i 9 ; 3 H 6.6.6.6.6.6.6.6.7.7.",
"7.7.7.7.7.V * 2 p u u u u u u u u u e = h <.7.7.6.Y 5 2 K u u u u u u u _ 9 - j -.6.6.6.6.6.6.6.7.7.",
"7.7.7.7.<.j < 4 _ u u u u u u u u u a O j 7.7.7.7.N - 8 u u u u u u u u u e - g -.6.6.6.6.6.6.6.7.7.",
"7.7.7.7.7.H ; 4 h u u u u u u u u u 8 - H 7.7.7.7.c $ q u u u u u u u u u d % d -.6.6.6.6.6.6.6.7.7.",
"7.7.7.7.7.! , t 9 N u u u u u u u g > 9 ) 7.7.7.7.k + a u u u u u u u u u g X j 6.6.6.6.6.6.6.6.7.7.",
"7.7.7.7.7.-.g 9 d 8 h j H F z h q * q Y <.7.7.7.7.z & e u u u u u u u u u 9 $ v 6.6.6.6.6.6.6.6.7.7.",
"7.7.7.7.7.7.%.z < 5 & ; 2 - % O + 8 / 7.7.7.7.7.7.Y 3 2 K u u u u u u u l - - N 6.6.6.6.6.6.6.6.7.7.",
"7.7.7.7.7.7.6.6.N y q q 5 8 r s j ) 6.7.7.7.7.7.7.-.a + t u u u u u u ] q % a %.6.6.6.6.6.6.6.6.7.7.",
"7.7.7.7.7.7.6.6.6.O.O.O.Y ) $.<.6.6.6.7.7.7.7.7.7.7.v - , s N u u u v 7 @ 8 / 6.6.6.6.6.6.6.6.6.7.7.",
"7.7.7.7.6.6.6.6.6.6.6.6.6.6.6.6.7.7.7.7.7.7.7.7.7.7.<.j 2 ; = 9 9 7 4 , t ) 6.6.6.6.6.6.6.6.6.6.7.7.",
"7.7.7.7.6.6.6.6.6.6.6.6.6.6.6.6.7.7.7.7.7.7.7.7.7.7.7.6.F w 2 & - * 2 j -.6.6.6.6.6.6.6.6.6.6.6.7.7.",
"7.7.7.7.6.6.6.6.6.6.6.6.6.6.6.6.7.7.7.7.7.7.7.7.7.7.7.7.6.O./ N V v ! 3.6.6.6.6.6.6.6.6.6.6.6.6.7.7.",
"7.7.7.7.6.6.6.6.6.6.6.6.6.6.6.6.7.7.7.7.7.7.7.7.7.7.7.7.6.6.6.7.7.7.7.7.6.6.6.6.6.6.6.6.6.6.6.6.7.7.",
"7.7.7.7.7.7.7.7.7.7.7.7.7.7.7.7.7.7.7.7.7.7.7.7.7.7.7.7.7.7.7.7.7.7.7.7.7.7.7.7.7.7.7.7.7.7.7.7.7.7.",
"7.7.7.7.7.7.7.7.7.7.7.7.7.7.7.7.7.7.7.7.7.7.7.7.7.7.7.7.7.7.7.7.7.7.7.7.7.7.7.7.7.7.7.7.7.7.7.7.7.7."
};
