/* XPM */
static char *_74c146e9bef4bb5da1990d7a9728816zshDJy1z7xrYFm4w[] = {
/* columns rows colors chars-per-pixel */
"50 50 121 2 ",
"   c #010203",
".  c #040609",
"X  c #070A0E",
"o  c #080B0F",
"O  c #090D12",
"+  c #0C1116",
"@  c #0E1319",
"#  c #11161C",
"$  c #12181E",
"%  c #151B22",
"&  c #191F27",
"*  c #192027",
"=  c #1C232C",
"-  c #1F2730",
";  c #222B34",
":  c #262F39",
">  c #27303B",
",  c #29323D",
"<  c #2C3642",
"1  c #2F3945",
"2  c #303A46",
"3  c #323D4A",
"4  c #35414E",
"5  c #374250",
"6  c #3A4654",
"7  c #3C4857",
"8  c #3E4B59",
"9  c #414E5D",
"0  c #42505F",
"q  c #455363",
"w  c #485667",
"e  c #485768",
"r  c #4B5B6C",
"t  c #4F5F71",
"y  c #505F72",
"u  c #7A5968",
"i  c #516174",
"p  c #556679",
"a  c #57687C",
"s  c #596B7F",
"d  c #6D6274",
"f  c #736C7F",
"g  c #832C2C",
"h  c #824149",
"j  c #824751",
"k  c #815968",
"l  c #816779",
"z  c #5C6E82",
"x  c #5F7186",
"c  c #62758B",
"v  c #65788F",
"b  c #667A91",
"n  c #697D95",
"m  c #7E7D94",
"M  c #806F83",
"N  c #807387",
"B  c #6B8097",
"V  c #6E839C",
"C  c #6F849C",
"Z  c #6F849D",
"A  c #6F859D",
"S  c #6D829A",
"D  c #70859E",
"F  c #70869E",
"G  c #70869F",
"H  c #71879F",
"J  c #70869E",
"K  c #7D869E",
"L  c #7D869E",
"P  c #7187A0",
"I  c #7288A1",
"U  c #7389A2",
"Y  c #748AA4",
"T  c #758BA4",
"R  c #758BA5",
"E  c #758CA5",
"W  c #758CA6",
"Q  c #768CA6",
"!  c #768DA7",
"~  c #778DA7",
"^  c #758BA5",
"/  c #778EA8",
"(  c #778EA8",
")  c #788EA9",
"_  c #788FA9",
"`  c #788FAA",
"'  c #798FAA",
"]  c #7990AA",
"[  c #7990AB",
"{  c #7A91AB",
"}  c #7A91AC",
"|  c #7B92AD",
" . c #7C93AE",
".. c #7C94AF",
"X. c #7990AB",
"o. c #7D95B0",
"O. c #7E95B1",
"+. c #8098B4",
"@. c #8099B4",
"#. c #8099B5",
"$. c #819AB6",
"%. c #829BB7",
"&. c #819AB6",
"*. c #839BB8",
"=. c #839CB8",
"-. c #839CB9",
";. c #849CB9",
":. c #839CB8",
">. c #86A0BD",
",. c #87A0BD",
"<. c #87A0BE",
"1. c #87A1BE",
"2. c #88A1BE",
"3. c #88A1BF",
"4. c #88A2BF",
"5. c #89A3C1",
"6. c #8AA4C1",
"7. c #8AA4C2",
"8. c #8BA4C2",
"9. c #8BA5C3",
"0. c #8AA4C2",
/* pixels */
"9.9.9.9.9.9.9.9.9.9.9.9.9.9.9.9.9.9.9.9.9.9.9.9.9.9.9.9.9.9.9.9.9.9.9.9.9.9.9.9.9.9.9.9.9.9.9.9.9.9.",
"9.9.9.9.9.9.9.9.9.9.9.9.9.9.9.9.9.9.9.9.9.9.9.9.9.9.9.9.9.9.9.9.9.9.9.9.9.9.9.9.9.9.9.9.9.9.9.9.9.9.",
"9.9.9.9.9.9.9.9.9.9.9.9.9.9.9.9.9.9.9.9.9.9.9.9.9.9.9.9.9.9.9.9.9.9.9.9.9.9.9.9.9.9.9.9.9.9.9.9.9.9.",
"9.9.9.9.9.9.9.9.9.9.9.9.9.9.9.9.9.9.9.9.9.9.9.9.9.9.9.9.9.9.9.9.9.9.9.9.9.9.9.9.9.9.9.9.9.9.9.9.9.9.",
"9.9.9.9.9.9.9.9.9.9.9.9.9.9.9.9.$...( I  .<.3.3.3.5.$.R C D B D Q -.9.9.9.9.9.9.9.9.9.9.9.9.9.9.9.9.",
"9.9.9.9.9.9.9.9.9.9.9.9.9.9.-.U r < ; % 1 c n n b z 7 = + # O O ; y | 9.9.9.9.9.9.9.9.9.9.9.9.9.9.9.",
"9.9.9.9.9.9.9.9.9.9.9.9.$.B q * * . + * > < : < ; % # +   # & # : 3 w B ..9.9.9.9.9.9.9.9.9.9.9.9.9.",
"9.9.9.9.9.9.9.9.9.9.9.) r % . @ * ; < ; : 5 e 7 7 3 w 9 = 0 e 3 r r > % : | 9.9.9.9.9.9.9.9.9.9.9.9.",
"9.9.9.9.9.9.9.9.9.9.Q 6 , % + - w b A ] K k g b @ a g g ) g g N g g B 2 : x n *.9.9.9.9.9.9.9.9.9.9.",
"9.9.9.9.9.9.9.9.9.%.t : # 4 5 B g g g g g g g b . r g g g g g g g g k 7 > + O 7 ..9.9.9.9.9.9.9.9.9.",
"9.9.9.9.9.9.9.9.9.R ; ; : 7 Q g g g g g g g g c   r g g g g g g g g g D v 5 @ O w O.8.9.9.9.9.9.9.9.",
"9.9.9.9.9.9.9.9.] 5 $ 6 , I g g g g g g g g g z   a g g g g g g g g g g g j c ; : x O.9.9.9.9.9.9.9.",
"9.9.9.9.9.9.9.-.7   @ : P g g g g g g g g g g a   a g g g g g g g g g g g g g D ; % w I 5.9.9.9.9.9.",
"9.9.9.9.9.9.9.o.7 # i ] g g g g g g g g g g g a   a g g g g g g g g g g g g g g z % % : I 9.9.9.9.9.",
"9.9.9.9.9.9.;.x , e g g g g g g g g g g g g g r   y g g g g g g g g g g g g g g N 8 & * t -.8.8.9.9.",
"9.9.9.9.9.9.B = i l g g g g g g g g g g g g g e   a g g g g g g g g g g g g g g g U 3 $ ; ] 9.8.9.9.",
"9.9.8.8.2.+.3 3 Q g g g g g g g g g g g g g g r   v g g g g g g g g g g g g g g g g D , . t ;.8.9.9.",
"9.9.8.8.;.z # c g g g g g g g g g g g g g g g 9   b g g g g g g g g g g g g g g g g g D > - n 9.9.8.",
"9.9.8.8.T 5 5 +.g g g g g g g g g g g g g g D O . n g g g g g g g g g g g g g g g g g g b = 2 n 5.9.",
"9.9.8.+.0 , B g g N c g g g g g g g g g g g a   + D g g g g g g g g g g g g g g g g g g g v < : ) 9.",
"9.9.8.n $ z g g g g ; g g g g g g g g g g g i   @ I g g g g g g g g d g g g g g g g g g g g q ; ) 9.",
"9.9.+.5 3 ) g g g g : g g g g g g g g g g g a   * ] g g g g g g g g 3  .g g g g g g g g g g b O b 8.",
"8.4.n @ s g g g g g > g g g g g g g g g g g p   ; m g g g g g g g g 7 l g g g g g g g g g g Q ; q $.",
"8.;.i ; n g g g g g , g g g g g g g g g g g i   % R g g g g g g g g 7 k g g g g g g g g g g g 9 : Q ",
"8.&.0 : Q g g g g g , g g g g g g g g g g g i   > j g g g g g g g g 7 l g g g g g g g g g g g r ; c ",
"4.+.3 5 +.g g g g g , g g g g g g g g g g g t   4 g g g g g g g g g , g g g g g g g g g g g g y ; 5 ",
"8.Q : 0 g g g g g g , g g g g g g g g g g g q # w g g g g g g g g g > g g g g g g g g g g g g v > 3 ",
"8.S $ a g g g g g g , g g g g g g g g g g g r + 3 k g g g g g g g l 7 g g g g g g g g g g g g c $ = ",
";.0   c g g g g g g , g g g g g g g g g g g b + 2 m g g c 7 k g g k 9 f g g g g g g g g g g g e O ; ",
"+.5 # c g g g g g g , g g g g g g g g g g g D $ > ] g Q ; ; Q g g g p s g g g g g g g g g g g e # ; ",
";.c - y g g g g g g > g g g g g g g g i i g A % ,  .g T ; - Q g g g a a g g g g g 9 j g g g g e O % ",
"2.n - r g g g g g g , g g g g g g g R ; = g m 4 d +.g L 4 4 K g g g z z g g g g g 9 k g g g g i : X ",
"4.n o n g g g g g g , g g g g g g g T = = g k 7 s 9 h g a a g g g g g g g g g g g 7 k g g g g t < + ",
"4.c + D g g g g g g , g g g g g g g U % o u l 7 c , T g g g g g g g g g g g g g g , +.g g g k 6 5 + ",
"4.z @ D g g g g g g , g g g g g g g Q : # g g , n : ' g g g g g g g g g g g g g h , ) g g g k 6 7 # ",
";.i : c g g g g g g , g g g g g g g g i * g g > s % v g g g g g g g g g g g g g k 9 n g g g k 9 r X ",
";.i 3 p g g g g g g , g g g g g g g g B 9 k g , y . p g g g g g g g g g g g g g g i s g g g k 6 9 < ",
";.i 4 i g g g g g g , g g g g g g g g g g g g , s . 7 g g g g g g g g g g g g g g a a g g g g w 2 r ",
";.i 4 i g g g g g g , g g g g g g g g g g g g , p   ; ' g g g g g g g g g g g g g s a g g g T ; & 4 ",
";.i 2 y g g g g g g , g g g g g c c g g g g g : 9 o - T g g g g g g g g g g g g g B e h g g U = % 3 ",
";.r & w g g g g g g 0 j g g g g p t g g g g g - = o , K g g g g g g g g g g g g g g g g g g P $ = 4 ",
";.w $ n g g g g g g g g g g g g g 9 k g g g g ; 2 # 0 g g g g g g g g g g g g g g g g g g g n X ; r ",
"+.4 $ c g g g g g g g g g g g g g 9 +.g g g g : , + = ) g g g g g g g g g g g g g g g g g g D , = e ",
"&.w - v g g g g g g g g g g g g f 8 m g g g g ; = @ o B g g g g g g g g g g g g g g g g g g g a o - ",
"@.9 o d g g g g g g g g g g g g g g g g g g g = < * . b g g g g g g g g g g g g g g g g g g g c   ; ",
"+.2 X q g g g g g g g g g g g g g g g g g g g & 0 = . v g g g g g g g g g g g g g g g g g g g c   : ",
"o.4 . 8 g g g g g g g g g g g g g g g g g g g > v - . b g g g g g g g g g g g g g g g g g g g c   : ",
"-.8   < k g g g g g g g g g g g g g g g g g g m m 2 + S g g g g g g g g g g g g g g g g g g g c   : ",
">.q   - L g g g g g g g g g g g g g g g g g g g g 0 : Q g g g g g g g g g g g g g g g g g g g B O 2 ",
"6.b O x g g g g g g g g g g g g g g g g g g g g g s i g g g g g g g g g g g g g g g g g g g g g y a "
};
