/* XPM */
static char *c72f490195d74684e4038db66b7c143d27h3Xjqr8MxXubO9[] = {
/* columns rows colors chars-per-pixel */
"50 50 117 2 ",
"   c #010203",
".  c #040609",
"X  c #06090D",
"o  c #080B0F",
"O  c #090D12",
"+  c #0C1116",
"@  c #0E1319",
"#  c #10161C",
"$  c #13181F",
"%  c #161C23",
"&  c #181F26",
"*  c #1C232B",
"=  c #222B34",
"-  c #262F39",
";  c #27303A",
":  c #2A333E",
">  c #2C3641",
",  c #2E3944",
"<  c #303A47",
"1  c #323D49",
"2  c #35404E",
"3  c #374351",
"4  c #394653",
"5  c #3C4856",
"6  c #3E4B5A",
"7  c #414E5E",
"8  c #455364",
"9  c #485667",
"0  c #485768",
"q  c #4A5A6B",
"w  c #4F5F72",
"e  c #505F72",
"r  c #526275",
"t  c #55667A",
"y  c #57687C",
"u  c #596A7E",
"i  c #5B6D82",
"p  c #5E7085",
"a  c #62758B",
"s  c #65788F",
"d  c #667A90",
"f  c #6A7E95",
"g  c #6B8097",
"h  c #6B8198",
"j  c #6C8198",
"k  c #6C8199",
"l  c #6D829A",
"z  c #6E839B",
"x  c #6E849C",
"c  c #6F849C",
"v  c #6F849D",
"b  c #6F859D",
"n  c #6D829A",
"m  c #70859E",
"M  c #70869E",
"N  c #70869F",
"B  c #71869F",
"V  c #7287A0",
"C  c #748AA4",
"Z  c #748BA4",
"A  c #758BA4",
"S  c #758BA5",
"D  c #768CA6",
"F  c #768DA7",
"G  c #778DA7",
"H  c #758BA4",
"J  c #778DA8",
"K  c #778EA8",
"L  c #788EA8",
"P  c #798FAA",
"I  c #7A91AB",
"U  c #7A91AC",
"Y  c #7A92AC",
"T  c #7B92AD",
"R  c #7B93AD",
"E  c #7C93AE",
"W  c #7C94AF",
"Q  c #7D94AF",
"!  c #7C93AE",
"~  c #7D95B0",
"^  c #7D95B1",
"/  c #7F97B3",
"(  c #7D95B0",
")  c #8098B3",
"_  c #8098B4",
"`  c #8199B5",
"'  c #819AB6",
"]  c #829AB6",
"[  c #829BB7",
"{  c #829AB6",
"}  c #899DB4",
"|  c #839BB8",
" . c #839CB8",
".. c #839CB9",
"X. c #849CB9",
"o. c #849DB9",
"O. c #849DBA",
"+. c #869EBC",
"@. c #869FBC",
"#. c #86A0BD",
"$. c #87A0BD",
"%. c #87A0BE",
"&. c #87A1BE",
"*. c #88A1BF",
"=. c #88A2BF",
"-. c #89A2C0",
";. c #89A3C0",
":. c #89A3C1",
">. c #8AA3C1",
",. c #8AA4C1",
"<. c #8AA4C2",
"1. c #8BA4C2",
"2. c #8BA5C3",
"3. c #8BA5C3",
"4. c #B6C1CE",
"5. c #F3F4F7",
"6. c white",
/* pixels */
"2.2.2.2.2.2.2.2.2.2.2.2.2.2.2. ._ Q f i , , % = % % 1 4 y r d Q 2.2.2.2.2.2.2.2.2.2.2.2.2.2.2.2.2.2.",
"2.2.2.2.2.2.2.2.2.2.2.2.2.2.X.i q 1 = % % , > 7 q q 3 < # = - 5 Z %.2.2.2.2.2.2.2.2.2.2.2.2.2.2.2.2.",
"2.2.2.2.2.2.2.2.2.2.2.2.2.2._ 9 % * q a v } Y 6.6.6.4.} v s w 8 5 f %.2.2.2.2.2.2.2.2.2.2.2.2.2.2.2.",
"2.2.2.2.2.2.2.2.2.2.2.2.2.=.d = 1 f 6.6.6.6.6.6.6.6.6.6.6.6.} q , 5 R 2.2.2.2.2.2.2.2.2.2.2.2.2.2.2.",
"2.2.2.2.2.2.2.2.2.2.2.2.2. .r = a 6.6.6.6.6.6.6.6.6.6.6.6.6.6.D 4 , f 2.2.2.2.2.2.2.2.2.2.2.2.2.2.2.",
"2.2.2.2.2.2.2.2.2.2.2.2.2./ 6 = A 6.6.6.6.6.6.6.6.6.6.6.6.6.6.6.s ; q  .2.2.2.2.2.2.2.2.2.2.2.2.2.2.",
"2.2.2.2.2.2.2.2.2.2.2.2.2.D = = D 6.6.6.6.6.6.6.6.6.6.6.6.6.6.6.K , 2 Q 2.2.2.2.2.2.2.2.2.2.2.2.2.2.",
"2.2.2.2.2.2.2.2.2.2.2.2.2.D = 6 5.6.6.6.6.6.6.6.6.6.6.6.6.6.6.6.D = = D 2.2.2.2.2.2.2.2.2.2.2.2.2.2.",
"2.2.2.2.2.2.2.2.2.2.2.2.2.K = 8 6.6.6.6.6.6.6.6.6.6.6.6.6.6.6.6.Y , 2 R 2.2.2.2.2.2.2.2.2.2.2.2.2.2.",
"2.2.2.2.2.2.2.2.2.2.2.2.2.K - 7 6.6.6.6.6.6.6.6.6.6.6.6.6.6.6.6.v @ i %.2.2.2.2.2.2.2.2.2.2.2.2.2.2.",
"2.2.2.2.2.2.2.2.2.2.2.2.2.Y < < } 6.6.6.6.6.6.6.6.6.6.6.6.6.6.6.a O x 2.2.2.2.2.2.2.2.2.2.2.2.2.2.2.",
"2.2.2.2.2.2.2.2.2.2.2.2.2.Y , % v 6.6.6.6.6.6.6.6.6.6.6.6.6.6.f - y #.2.2.2.2.2.2.2.2.2.2.2.2.2.2.2.",
"2.2.2.2.2.2.2.2.2.2.2.2.2.%.i * i 6.6.6.6.6.6.6.6.6.6.6.6.6.v : @ g 2.2.2.2.2.2.2.2.2.2.2.2.2.2.2.2.",
"2.2.2.2.2.2.2.2.2.2.2.2.2.2.Y , : p 6.6.6.6.6.6.6.6.6.6.6.a 2 * p %.2.2.2.2.2.2.2.2.2.2.2.2.2.2.2.2.",
"2.2.2.2.2.2.2.2.2.2.2.2.2.2.2.n ; = i A Y M } 6.6.6.4.x 8 X @ 8  .2.2.2.2.2.2.2.2.2.2.2.2.2.2.2.2.2.",
"2.2.2.2.2.2.2.2.2.2.2.2.2.2.2.-.v < O % = $ : 4 y s < * * = % v 2.2.2.2.2.2.2.2.2.2.2.2.2.2.2.2.2.2.",
"2.2.2.2.2.2.2.2.2.2.2.2.2.2.2.2.2.A 1 X   . O . O % $ o $ - f 2.2.2.2.2.2.2.2.2.2.2.2.2.2.2.2.2.2.2.",
"2.2.2.2.2.2.2.2.2.2.2.2.2.2.2.2.2.2./ s 7 * *     % t n C Y 2.2.2.2.2.2.2.2.2.2.2.2.2.2.2.2.2.2.2.2.",
"2.2.2.2.2.2.2.2.2.2.2.2.2.2.2.2.2.2.2.2._ f 4   X % n -.2.2.2.2.2.2.2.2.2.2.2.2.2.2.2.2.2.2.2.2.2.2.",
"2.2.2.2.2.2.2.2.2.2.2.2.2.2.2.2.2.2.2.2.A 2 4   X o 2 / 2.2.2.2.2.2.2.2.2.2.2.2.2.2.2.2.2.2.2.2.2.2.",
"2.2.2.2.2.2.2.2.2.2.2.2.2.2.2.2.2.2.2.( : . O   . X   r X.2.2.2.2.2.2.2.2.2.2.2.2.2.2.2.2.2.2.2.2.2.",
"2.2.2.2.2.2.2.2.2.2.2.2.2.2.2.2.2.2.%.9   . =     *   % d %.2.2.2.2.2.2.2.2.2.2.2.2.2.2.2.2.2.2.2.2.",
"2.2.2.2.2.2.2.2.2.2.2.2.2.2.2.2.2.2.u .   ; 8     1   . # i %.2.2.2.2.2.2.2.2.2.2.2.2.2.2.2.2.2.2.2.",
"2.2.2.2.2.2.2.2.2.2.2.2.2.2.2.2.-.f %   = M r     u 2     = s =.2.2.2.2.2.2.2.2.2.2.2.2.2.2.2.2.2.2.",
"2.2.2.2.2.2.2.2.2.2.2.2.2.2.2.2.G > O $ n @.q   O f _ :   * # a %.2.2.2.2.2.2.2.2.2.2.2.2.2.2.2.2.2.",
"2.2.2.2.2.2.2.2.2.2.2.2.2.2.2._ 9 O * f -.| 7   O k 2.v %   = * x 2.2.2.2.2.2.2.2.2.2.2.2.2.2.2.2.2.",
"2.2.2.2.2.2.2.2.2.2.2.2.2.2.%.t O . a 2.2.X.q @ * A 2.-.t   X q 9 / 2.2.2.2.2.2.2.2.2.2.2.2.2.2.2.2.",
"2.2.2.2.2.2.2.2.2.2.2.2.2.=.p % o r X.2.2. .q % : Y 2.2._ 5 $ v / 2.2.2.2.2.2.2.2.2.2.2.2.2.2.2.2.2.",
"2.2.2.2.2.2.2.2.2.2.2.2.2.M % = a %.2.2.2. .8 o @ n 2.2.2. .A =.2.2.2.2.2.2.2.2.2.2.2.2.2.2.2.2.2.2.",
"2.2.2.2.2.2.2.2.2.2.2.2.2._ w f X.2.2.2.2. .8 .   a 2.2.2.2.2.2.2.2.2.2.2.2.2.2.2.2.2.2.2.2.2.2.2.2.",
"2.2.2.2.2.2.2.2.2.2.2.2.2.-.X.=.2.2.2.2.2.| 7   . s 2.2.2.2.2.2.2.2.2.2.2.2.2.2.2.2.2.2.2.2.2.2.2.2.",
"2.2.2.2.2.2.2.2.2.2.2.2.2.2.2.2.2.2.2.2.2.| 7 . X g 2.2.2.2.2.2.2.2.2.2.2.2.2.2.2.2.2.2.2.2.2.2.2.2.",
"2.2.2.2.2.2.2.2.2.2.2.2.2.2.2.2.2.2.2.2.2.R 1 $ . k 2.2.2.2.2.2.2.2.2.2.2.2.2.2.2.2.2.2.2.2.2.2.2.2.",
"2.2.2.2.2.2.2.2.2.2.2.2.2.2.2.2.2.2.2.2.2.( ; * @ V 2.2.2.2.2.2.2.2.2.2.2.2.2.2.2.2.2.2.2.2.2.2.2.2.",
"2.2.2.2.2.2.2.2.2.2.2.2.2.2.2.2.2.2.2.2.2.2.k = = K 2.2.2.2.2.2.2.2.2.2.2.2.2.2.2.2.2.2.2.2.2.2.2.2.",
"2.2.2.2.2.2.2.2.2.2.2.2.2.2.2.2.2.2.2.2.2.2.D = = v 2.2.2.2.2.2.2.2.2.2.2.2.2.2.2.2.2.2.2.2.2.2.2.2.",
"2.2.2.2.2.2.2.2.2.2.2.2.2.2.2.2.2.2.2.2.2.2.f + * 5 Q 2.2.2.2.2.2.2.2.2.2.2.2.2.2.2.2.2.2.2.2.2.2.2.",
"2.2.2.2.2.2.2.2.2.2.2.2.2.2.2.2.2.2.2.2.2./ 4   : + t #.2.2.2.2.2.2.2.2.2.2.2.2.2.2.2.2.2.2.2.2.2.2.",
"2.2.2.2.2.2.2.2.2.2.2.2.2.2.2.2.2.2.2.2._ 6 .   0 . % f 2.2.2.2.2.2.2.2.2.2.2.2.2.2.2.2.2.2.2.2.2.2.",
"2.2.2.2.2.2.2.2.2.2.2.2.2.2.2.2.2.2.2.2.i     # s *   = Y 2.2.2.2.2.2.2.2.2.2.2.2.2.2.2.2.2.2.2.2.2.",
"2.2.2.2.2.2.2.2.2.2.2.2.2.2.2.2.2.2.2.Q ;   + < R a o   y -.2.2.2.2.2.2.2.2.2.2.2.2.2.2.2.2.2.2.2.2.",
"2.2.2.2.2.2.2.2.2.2.2.2.2.2.2.2.2.2.2.v @   = s %.%.r   = Y 2.2.2.2.2.2.2.2.2.2.2.2.2.2.2.2.2.2.2.2.",
"2.2.2.2.2.2.2.2.2.2.2.2.2.2.2.2.2.2.X.9   % g %.2.2.v @   i 2.2.2.2.2.2.2.2.2.2.2.2.2.2.2.2.2.2.2.2.",
"2.2.2.2.2.2.2.2.2.2.2.2.2.2.2.2.2.2.p     9 2.2.2.2.%.9   2 ) 2.2.2.2.2.2.2.2.2.2.2.2.2.2.2.2.2.2.2.",
"2.2.2.2.2.2.2.2.2.2.2.2.2.2.2.2.2.Y %   @ D 2.2.2.2.2.V % * D 2.2.2.2.2.2.2.2.2.2.2.2.2.2.2.2.2.2.2.",
"2.2.2.2.2.2.2.2.2.2.2.2.2.2.2.2.2.i .   r 2.2.2.2.2.2. .9 % x 2.2.2.2.2.2.2.2.2.2.2.2.2.2.2.2.2.2.2.",
"2.2.2.2.2.2.2.2.2.2.2.2.2.2.2.2./ , X 3 _ 2.2.2.2.2.2.2.V : 9 ) 2.2.2.2.2.2.2.2.2.2.2.2.2.2.2.2.2.2.",
"2.2.2.2.2.2.2.2.2.2.2.2.2.2.2.2.Q > a _ 2.2.2.2.2.2.2.2.2.n , Q 2.2.2.2.2.2.2.2.2.2.2.2.2.2.2.2.2.2.",
"2.2.2.2.2.2.2.2.2.2.2.2.2.2.2.2.2./ =.2.2.2.2.2.2.2.2.2.2.2.Q 2.2.2.2.2.2.2.2.2.2.2.2.2.2.2.2.2.2.2.",
"2.2.2.2.2.2.2.2.2.2.2.2.2.2.2.2.2.2.2.2.2.2.2.2.2.2.2.2.2.2.2.2.2.2.2.2.2.2.2.2.2.2.2.2.2.2.2.2.2.2."
};
