/* XPM */
static char *_3f8d5ddcf39487584ff41a49ee5af53218QdRnAEB69dyJq[] = {
/* columns rows colors chars-per-pixel */
"50 50 120 2 ",
"   c #010203",
".  c #040609",
"X  c #06090D",
"o  c #070C10",
"O  c #090D11",
"+  c #0C1116",
"@  c #0E1319",
"#  c #11161C",
"$  c #12181E",
"%  c #161C23",
"&  c #181F26",
"*  c #192027",
"=  c #1C232B",
"-  c #1F2730",
";  c #222A33",
":  c #262F39",
">  c #27303A",
",  c #29333E",
"<  c #2C3641",
"1  c #2E3944",
"2  c #303B47",
"3  c #333D4A",
"4  c #35414E",
"5  c #374351",
"6  c #394553",
"7  c #3B4856",
"8  c #3E4B5A",
"9  c #414E5E",
"0  c #445162",
"q  c #485667",
"w  c #485768",
"e  c #4C5C6D",
"r  c #4F5E71",
"t  c #505F72",
"y  c #526275",
"u  c #556679",
"i  c #57687C",
"p  c #586A7E",
"a  c #87462A",
"s  c #836E79",
"d  c #2A8732",
"f  c #4D8B69",
"g  c #588D7A",
"h  c #5C6D82",
"j  c #5E7186",
"k  c #62758B",
"l  c #64788E",
"z  c #667A91",
"x  c #6A7E95",
"c  c #618E88",
"v  c #6B8097",
"b  c #6D839B",
"n  c #70869E",
"m  c #7E889E",
"M  c #6A9094",
"N  c #699094",
"B  c #71919F",
"V  c #7187A0",
"C  c #7287A0",
"Z  c #7287A1",
"A  c #7288A1",
"S  c #7388A2",
"D  c #7389A2",
"F  c #7389A3",
"G  c #748AA3",
"H  c #748AA4",
"J  c #758BA5",
"K  c #768CA6",
"L  c #768DA6",
"P  c #768DA7",
"I  c #778DA7",
"U  c #778DA7",
"Y  c #778DA8",
"T  c #778EA8",
"R  c #788FA8",
"E  c #788EA9",
"W  c #788FA9",
"Q  c #788FAA",
"!  c #798FAA",
"~  c #7C8EA8",
"^  c #7891A8",
"/  c #7990AA",
"(  c #7990AB",
")  c #7991AB",
"_  c #7A91AB",
"`  c #7A91AC",
"'  c #7A92AC",
"]  c #7A92AD",
"[  c #7B92AD",
"{  c #7B93AD",
"}  c #7B93AE",
"|  c #7C93AE",
" . c #7C94AF",
".. c #7D94AF",
"X. c #7B93AE",
"o. c #7D94B0",
"O. c #7D95B0",
"+. c #7E96B1",
"@. c #7E96B2",
"#. c #7F97B2",
"$. c #7F97B3",
"%. c #8199B5",
"&. c #829AB7",
"*. c #839BB8",
"=. c #839CB8",
"-. c #839CB9",
";. c #849CB9",
":. c #849DB9",
">. c #849CB9",
",. c #87A0BD",
"<. c #87A1BE",
"1. c #88A1BE",
"2. c #88A1BF",
"3. c #88A1BF",
"4. c #88A2C0",
"5. c #89A3C1",
"6. c #8AA4C1",
"7. c #8AA4C2",
"8. c #8BA5C3",
"9. c #8BA5C3",
/* pixels */
"8.8.8.8.8.8.8.8.8.8.8.8.8.8.*.` $.<.8.8.9.9.5.n 2 r 1 x <.7.9.9.8.5.b < , y | 8.8.8.8.8.8.8.8.8.8.8.",
"8.8.8.8.8.8.8.8.8.8.8.8.5.^ i < 9 x $.=.8.5.n 1 b d D w ^ $.5.9.8.b 2 k b 0 u %.8.8.8.8.8.8.8.8.8.8.",
"8.8.8.8.8.8.8.8.8.8.8.8.` 0 i F x 9 8 i F C 7 7 c d d ` h 0 F :.K < y d d F 0 x <.8.8.8.8.8.8.8.8.8.",
"8.8.8.8.8.8.8.8.8.8.8.>.h w ` d d N b u < 7 , C d d d d c u 0 z u u c d d d x 9 | 8.8.8.8.8.8.8.8.8.",
"8.8.8.8.8.8.8.8.9.9.9.>.h y d d d d d d ^ C ` d d d d d d d x 8 < U d d d d b 3 x 2.9.9.9.9.8.8.8.8.",
"8.8.8.8.8.8.8.=.| ` ` ! j 6 C d d d d d d d d d d d d d d d d f N d d d d p 3 % 9 J *.*.>.5.8.8.8.8.",
"8.8.8.8.8.5.| y < , , , : & 5 g d d d d d d d d d d d d d d d d d d d d d u 4 ; 1 6 y i h K *.8.8.8.",
"8.8.8.8.8.%.u 0 b ^ ^ ^ T z b d d d d d d d d d d d d d d d d d d d d d d d B K n , y p y 2 i K 3.8.",
"8.8.8.8.5.b 9 D d d d d d d d d d d d d d d d d d d d d d d d d d d d d d d d d d c d d d T u 1 U 8.",
"8.8.8.8.=.i i d d d d d d d d d d d d d d d d d d d d d d d d d d d d d d d d d d d d d d d N u p >.",
"8.8.8.8.$.9 z d d d d d d d d d d d d d d d d d d d d d d d d d d d d d d d d d d d d d d d d v 8 #.",
"8.8.8.8.=.p u p h d d d d d d d d d d d d d d d d d d d d d d d d d d d d d d d d d d d d d d z 9 #.",
"8.8.8.8.5.` 8 + e d d d d d d d d d d d d d d d d d d d d d d d d d d d d d d d d d d d d d N 9 x 2.",
"8.8.8.8.8.D 0 l d d d d d d d d d d d d d d d d d d d d d d d d d d d d d d d d d d d d d d b 8 ..8.",
"8.8.8.8.K 1 D d d d d d d d d d d d d d d d d d d d d d d d d d d d d d d d d d d d d d d c p p =.8.",
"8.8.8.*.p u d d d d d d d d d d d d d d d d d d d d d d d d d d d d d d d d d d d d d d d j u $.8.8.",
"9.9.9.@.8 x d d d d d d d d d d d d d d d d d d d d d d d d d d d d d d d d d d d d d d d b 8 @.9.9.",
"9.9.9.@.8 b d d d d d d d d d d d d d d d d d d d d d d d d d d d d d d d d d d d d d d d ^ , ` 9.9.",
"9.9.9.@.9 x d d d d d d d d d d d d d d d d d d d d d d d d d d d d d d d d d d d d d d d ^ , ` 9.9.",
"9.9.7.*.h i C x t h d d d d d d d d d d d d d d d d d d d d d d d d d d d d d d d d d d d B 4 b 5.9.",
"9.9.9.9.! 3 ; @ & y d d d d d d d d d d d d d d d d d d d d d d d d d d d d d d d d d d d C 0 ` 9.9.",
"9.9.9.5.P 7 0 h F d d d d d d d d d d d d d d d d d d d d d d d d d d d d d d d C 8 C g b 3 D 8.9.9.",
"9.9.9.%.i r Q d d d d d d d d d d d d d d d d d d d d d d d d d d d d d d d d d F & 3 7 1 C 8.8.9.9.",
"9.9.4.b 0 T d d d d d d d d d d d d d d d d d d d d d d d d d d d d d d d d d d g 5 q x ` 8.8.8.9.9.",
"9.9.*.u i d d d d d d d d d d d d d d d d d d d d d d d ` f d d d d d d d d d d d y u %.9.9.9.9.9.9.",
"9.5.T 1 T d d d d d d d d d d d d k r d d d d d d d d ! = 5 f d d d d d d d d d d p p %.9.9.9.9.9.9.",
"9.*.i u d d d d d d d d d d d d d x @ i d d d d d d d h   % J d d d d d d d d d d y y ;.9.9.9.9.9.9.",
"9.$.8 b d d d d d d d c c d d d d b $ & b d d d d d c 2 . $ h d d d d d d d c d C 7 8 %.9.9.9.9.9.9.",
"9.O.1 b d d d d d d M 7 8 c d d d x O   0 d d d d d K 3 O @ 9 z y k x h u y 7 y 8 7 z 2.9.9.9.9.9.9.",
"9.9.F w D d d d d d T ; 9 d d d d 7     < g d d d J r 9 .   = 6 8 1 7 y i y 7 u b ^ <.9.9.9.9.9.9.9.",
"9.9.<.x 1 i b T ^ ^ z * 8 C ^ ` b 1     - C f f D 7 8 i     0 ` ..^ $.*.*.*.$.%.5.9.9.9.9.9.9.9.9.9.",
"9.9.9.<.T i 8 , : , < 0 : , , : = 8 * - X 3 8 8 7 8 D l     h 8.8.8.8.8.8.8.9.9.5.9.9.9.9.9.9.9.9.9.",
"9.9.9.9.8.=.$.` ` } O.%.O.` ` ` b 3 ; 5 w x b b b ~ a k     k 9.9.9.9.9.9.9.9.9.9.9.9.9.9.9.9.9.9.9.",
"9.9.9.9.9.9.8.8.9.9.9.9.8.8.9.9.` =   $ b a a a a a a h     h 9.9.9.9.9.9.9.9.9.9.9.9.9.9.9.9.9.9.9.",
"9.9.9.9.9.9.9.9.9.9.9.9.9.9.9.9.T * . O x a a a a a a k     h 8.9.9.9.9.9.9.9.9.9.9.9.9.9.9.9.9.9.9.",
"9.9.9.9.9.9.9.9.9.9.9.9.9.9.9.9.! *   O b a a a a a a z     6 =.9.9.9.9.9.9.9.9.9.9.9.9.9.9.9.9.9.9.",
"9.9.9.9.9.9.9.9.9.9.9.9.9.9.9.9.T = . X x a a a a a a x .   ; ..9.9.9.9.9.9.9.9.9.9.9.9.9.9.9.9.9.9.",
"9.9.9.9.9.9.9.9.9.9.9.9.9.9.9.9.T = X   z a a a a a a b X   = | 9.9.9.9.9.9.9.9.9.9.9.9.9.9.9.9.9.9.",
"9.9.9.9.9.9.9.9.9.9.9.9.9.9.9.9.! =     z a a a a a a K @   O J 9.9.9.9.9.9.9.9.9.9.9.9.9.9.9.9.9.9.",
"9.9.9.9.9.9.9.9.9.9.9.9.9.9.9.9.` : . . k a a a a a a a ;     l 9.9.9.9.9.9.9.9.9.9.9.9.9.9.9.9.9.9.",
"9.9.9.9.9.9.9.9.9.9.9.9.9.9.9.9.$.<     l a a a a a a a <     y 5.9.9.9.9.9.9.9.9.9.9.9.9.9.9.9.9.9.",
"9.9.9.9.9.9.9.9.9.9.9.9.9.9.9.9.;.8     j a a a a a a a 8     7 ;.9.9.9.9.9.9.9.9.9.9.9.9.9.9.9.9.9.",
"9.9.9.9.9.9.9.9.9.9.9.9.9.9.9.9.>.8   . h a a a a a a a q     > ^ 9.9.9.9.9.9.9.9.9.9.9.9.9.9.9.9.9.",
"9.9.9.9.9.9.9.9.9.9.9.9.9.9.9.9.>.0   X h a a a a a a a u     $ J 9.9.9.9.9.9.9.9.9.9.9.9.9.9.9.9.9.",
"9.9.9.9.9.9.9.9.9.9.9.9.9.9.9.9.%.r * & 0 a a a a a a a p       z 8.8.8.9.9.9.9.9.9.9.9.9.9.9.9.9.9.",
"9.9.9.9.9.9.9.9.9.9.9.9.9.9.9.9.;.t = = w a a a a a a a t @ +   u 8.8.8.9.9.9.9.9.9.9.9.9.9.9.9.9.9.",
"9.9.9.9.9.9.9.9.9.9.9.9.9.9.9.9.2.k & u s a a a a a a a z 1 4   t 2.8.8.9.9.9.9.9.9.9.9.9.9.9.9.9.9.",
"9.9.9.9.9.9.9.9.9.9.9.9.9.9.9.9.2.k & l a a a a a a a a b 5 9 O e >.8.8.9.9.9.9.9.9.9.9.9.9.9.9.9.9.",
"9.9.9.9.9.9.9.9.9.9.9.9.9.9.9.9.4.l * z a a a a a a a a b 7 9 * 3 | 9.9.9.9.9.9.9.9.9.9.9.9.9.9.9.9.",
"9.9.9.9.9.9.9.9.9.9.9.9.9.9.9.9.5.b 8 m a a a a a a a a ` 5 , * = ! 9.9.9.9.9.9.9.9.9.9.9.9.9.9.9.9."
};
